<svg xmlns="http://www.w3.org/2000/svg" xmlns:xlink="http://www.w3.org/1999/xlink" viewBox="0,0,256,256" width="120px" height="120px" fill-rule="nonzero"><g fill="#fa5252" fill-rule="nonzero" stroke="none" stroke-width="1" stroke-linecap="butt" stroke-linejoin="miter" stroke-miterlimit="10" stroke-dasharray="" stroke-dashoffset="0" font-family="none" font-weight="none" font-size="none" text-anchor="none" style="mix-blend-mode: normal"><g transform="scale(8.53333,8.53333)"><path d="M24,4h-18c-1.105,0 -2,0.895 -2,2v18c0,1.105 0.895,2 2,2h18c1.105,0 2,-0.895 2,-2v-18c0,-1.105 -0.895,-2 -2,-2zM17,23h-9c-0.552,0 -1,-0.448 -1,-1v0c0,-0.552 0.448,-1 1,-1h9c0.552,0 1,0.448 1,1v0c0,0.552 -0.448,1 -1,1zM22,19h-14c-0.552,0 -1,-0.448 -1,-1v0c0,-0.552 0.448,-1 1,-1h14c0.552,0 1,0.448 1,1v0c0,0.552 -0.448,1 -1,1zM10.5,13.31c0,0 -3.5,-2.31 -3.5,-4.31c0,-1.105 0.895,-2 2,-2c0.601,0 1.133,0.27 1.5,0.69c0.367,-0.42 0.899,-0.69 1.5,-0.69c1.105,0 2,0.895 2,2c0,2 -3.5,4.31 -3.5,4.31z"></path></g></g></svg>